<svg id="Component_3_1" data-name="Component 3 – 1" xmlns="http://www.w3.org/2000/svg" width="48.181" height="48.181" viewBox="0 0 48.181 48.181">
  <g id="Component_2_1" data-name="Component 2 – 1">
    <path id="Path_53" data-name="Path 53" d="M820.766-265.688A24.091,24.091,0,0,0,796.675-241.6a24.091,24.091,0,0,0,24.091,24.09,24.09,24.09,0,0,0,24.09-24.09A24.091,24.091,0,0,0,820.766-265.688Zm8.492,25.545-10.926,10.925a2.047,2.047,0,0,1-1.453.6,2.049,2.049,0,0,1-1.453-.6,2.055,2.055,0,0,1,0-2.907L824.9-241.6l-9.472-9.472a2.055,2.055,0,0,1,0-2.907,2.054,2.054,0,0,1,2.907,0l10.926,10.925a2.057,2.057,0,0,1,.6,1.453A2.059,2.059,0,0,1,829.258-240.143Z" transform="translate(-796.675 265.688)" fill="#FFFFFF"/>
  </g>
</svg>
